<svg width="50" height="50" viewBox="0 0 50 50" fill="none" xmlns="http://www.w3.org/2000/svg">
<path d="M47.1939 18.7417C45.6721 18.4201 44.0376 19.2004 43.3197 20.6388C43.1062 21.0676 42.9252 21.3833 42.3527 21.3803C37.4403 21.3505 32.5309 21.3416 27.6185 21.3416C27.0578 21.3416 26.8917 21.1182 26.9095 20.5851C26.9421 19.656 26.9688 18.7239 26.9006 17.7977C26.8383 16.9787 27.1854 16.812 27.921 16.8209C30.8103 16.8566 33.7026 16.8179 36.5919 16.8626C37.3483 16.8745 37.559 16.6214 37.5352 15.8917C37.4848 14.3997 37.5382 12.9048 37.5026 11.4157C37.4878 10.829 37.6806 10.5104 38.2205 10.2483C39.7897 9.48297 40.5076 7.9046 40.113 6.24285C39.7541 4.72702 38.3747 3.62216 36.8144 3.59834C35.0553 3.57154 33.7352 4.52749 33.2843 6.15648C32.8453 7.74676 33.5602 9.42341 35.0761 10.2215C35.5299 10.4598 35.7583 10.7367 35.7435 11.2609C35.7168 12.2168 35.7109 13.1758 35.7465 14.1317C35.7732 14.8315 35.4973 15.0519 34.8032 15.04C32.5012 14.9983 30.1993 14.9834 27.9003 15.0192C27.1379 15.0311 26.8858 14.8196 26.8917 14.0305C26.9095 10.6236 26.8531 7.21667 26.8591 3.8068C26.8591 3.18439 26.7019 2.84191 26.073 2.63345C23.5693 1.79959 21.0923 0.885332 18.5857 0.0723243C18.1674 -0.0646661 17.5564 -0.00212705 17.1737 0.218249C13.7327 2.17781 10.3272 4.19693 6.89802 6.17733C6.41746 6.45429 6.26023 6.7789 6.26617 7.32388C6.29286 9.74504 6.2543 12.1692 6.29286 14.5903C6.30473 15.2485 6.07928 15.6058 5.51566 15.9156C3.8426 16.8328 2.18733 17.7888 0.555802 18.7804C0.288824 18.9442 0.0188777 19.3641 0.0159112 19.6709C-0.0167194 23.1909 0.0129484 26.711 0.00108276 30.2311C0.00108276 30.7135 0.155334 30.9905 0.582499 31.2257C2.25853 32.143 3.89896 33.1168 5.57795 34.0311C6.06148 34.2931 6.25133 34.5909 6.24243 35.1508C6.2098 37.6583 6.20684 40.1629 6.2454 42.6704C6.25133 43.0129 6.47085 43.5072 6.74673 43.671C10.2738 45.7616 13.8276 47.8075 17.3843 49.8445C17.6157 49.9785 17.9835 50.047 18.2268 49.9636C20.944 49.0672 23.6494 48.1291 26.3666 47.2268C26.8264 47.0749 26.9599 46.8218 26.9451 46.3602C26.9154 45.2911 26.9332 44.219 26.9332 43.1498C26.9332 40.9252 26.9421 38.7006 26.9154 36.476C26.9095 35.8983 27.0815 35.6839 27.6808 35.6988C29.1966 35.7345 30.7125 35.7285 32.2253 35.6988C32.8156 35.6868 33.0263 35.9132 33.0025 36.4909C32.9729 37.2205 33.0559 37.9621 32.9729 38.6857C32.9373 38.9925 32.6762 39.3915 32.4033 39.5375C30.7955 40.4011 30.0005 41.9973 30.4128 43.6859C30.8074 45.2881 32.2639 46.4257 33.9281 46.4257C35.5566 46.4257 37.0131 45.2911 37.3869 43.7335C37.8052 41.9973 37.0754 40.3803 35.4409 39.597C34.9722 39.3737 34.8447 39.0967 34.8536 38.6262C34.8743 37.3873 34.8121 36.1455 34.8773 34.9096C34.9188 34.1025 34.6815 33.8345 33.8539 33.8553C31.8071 33.906 29.7573 33.8643 27.7075 33.8494C27.3663 33.8494 26.9214 33.9626 26.9214 33.3729C26.9214 32.0834 26.9214 30.7939 26.9214 29.4419C27.4079 29.4151 27.7935 29.3793 28.1821 29.3793C30.7362 29.3793 33.2962 29.4895 35.8414 29.3466C37.4373 29.2572 38.5023 29.7218 39.2558 31.1274C39.5494 31.6754 39.7155 32.0834 39.4901 32.7416C39.0125 34.1234 39.3091 35.4218 40.4008 36.4522C41.4865 37.4796 42.7828 37.7179 44.1504 37.1967C45.5327 36.6696 46.2713 35.5737 46.4078 34.0995C46.6332 31.6278 44.3046 29.7695 41.8098 30.4663C41.27 30.6182 41 30.5259 40.7123 30.0702C40.3237 29.4508 39.8223 28.9058 39.4456 28.2834C39.1074 27.7235 38.6595 27.5806 38.0454 27.5806C34.6786 27.5836 31.3117 27.5538 27.9418 27.5359C27.6392 27.5359 27.3367 27.5359 26.9214 27.5359C26.9214 26.2166 26.9421 25.0344 26.9125 23.855C26.8976 23.2892 27.129 23.1224 27.657 23.1254C32.4834 23.1433 37.3098 23.1552 42.1361 23.1492C42.7383 23.1492 43.0765 23.3339 43.3583 23.9116C44.091 25.4126 45.945 26.1362 47.5172 25.63C49.0894 25.1237 50.0595 23.7449 49.9972 22.1099C49.9349 20.4511 48.7958 19.0872 47.1909 18.7477L47.1939 18.7417ZM36.758 8.85758C35.7702 8.87545 34.9544 8.10711 34.9366 7.13924C34.9159 6.15053 35.6782 5.33156 36.6483 5.30178C37.6242 5.272 38.443 6.04927 38.4637 7.0231C38.4845 8.0267 37.728 8.83971 36.761 8.85758H36.758ZM46.4731 23.9593C45.4763 23.9533 44.6991 23.176 44.708 22.1992C44.7169 21.2433 45.5386 20.469 46.5265 20.4898C47.4846 20.5107 48.2262 21.2552 48.2351 22.2112C48.247 23.1999 47.4727 23.9652 46.4731 23.9563V23.9593ZM44.6161 33.8256C44.6161 34.7964 43.8122 35.6035 42.854 35.5886C41.9137 35.5767 41.1365 34.8083 41.1276 33.8821C41.1187 32.8905 41.881 32.137 42.8867 32.14C43.8478 32.14 44.6161 32.8905 44.6161 33.8256ZM25.094 28.8701C25.1207 29.4865 24.8953 29.835 24.3732 30.1477C20.4902 32.4676 16.6279 34.8143 12.7567 37.155C12.5223 37.298 12.2939 37.4558 12.0062 37.6464C12.3355 38.1884 12.6351 38.6828 12.991 39.2724C16.969 36.8453 20.9084 34.439 24.9902 31.9494C25.0229 32.3782 25.0614 32.6701 25.0614 32.959C25.0466 36.9317 25.011 40.9014 25.014 44.8741C25.014 45.4459 24.8538 45.7169 24.2931 45.8956C22.3916 46.4912 20.5169 47.1702 18.6184 47.7658C18.295 47.8671 17.85 47.8194 17.5415 47.6705C16.8177 47.3221 16.1444 46.8724 15.3316 46.39C17.3131 45.1362 19.1998 43.945 21.1576 42.7061C20.8313 42.1582 20.5347 41.6638 20.1994 41.1009C19.9117 41.2588 19.6685 41.3779 19.44 41.5208C17.6276 42.6495 15.8091 43.7693 14.0115 44.9188C13.5843 45.1928 13.2521 45.2404 12.7953 44.9635C11.4515 44.1445 10.0632 43.406 8.7283 42.5721C8.46132 42.4053 8.20917 41.9795 8.20324 41.6668C8.15281 39.472 8.18248 37.2741 8.15281 35.0763C8.14688 34.5611 8.3219 34.2633 8.75499 33.9894C10.1967 33.0751 11.6087 32.1132 13.0949 31.1274C12.7241 30.5735 12.4007 30.0941 12.0359 29.5461C10.5675 30.505 9.14953 31.4044 7.76421 32.3514C7.33111 32.6463 7.00184 32.6522 6.55391 32.3842C5.22792 31.595 3.87819 30.8416 2.51957 30.103C2.09834 29.8737 1.91739 29.5997 1.93222 29.1083C1.96189 28.1226 1.88179 27.1339 1.95298 26.1541C1.97672 25.8146 2.23776 25.3679 2.52847 25.1892C4.1956 24.1558 5.90426 23.188 7.68115 22.1516C7.36671 21.6007 7.08193 21.1003 6.74673 20.5196C5.15672 21.4309 3.61419 22.3124 1.89663 23.2952C1.89663 22.2439 1.86399 21.3565 1.92035 20.475C1.93519 20.2635 2.21107 20.0134 2.42465 19.8853C3.84853 19.0366 5.27538 18.1938 6.73189 17.4016C6.98997 17.2616 7.44977 17.2408 7.70488 17.3778C9.14063 18.1461 10.5467 18.971 11.9498 19.796C12.7508 20.2665 12.733 23.3815 11.935 23.867C11.3595 24.2184 10.7722 24.5519 10.1907 24.8884C9.63305 25.2101 9.07537 25.5287 8.44648 25.8861C8.76686 26.4251 9.06647 26.9254 9.42244 27.521C10.3213 27.0028 11.2409 26.577 12.0388 25.9814C12.9792 25.2815 13.7771 25.2309 14.7412 25.9397C15.5481 26.5323 16.4825 26.9492 17.4436 27.4883C17.7611 26.9612 18.0547 26.4668 18.3959 25.898C17.2271 25.225 16.1355 24.5549 15.0023 23.9593C14.4713 23.6823 14.3882 23.3101 14.3081 22.7591C14.0234 20.8055 14.6018 19.4446 16.5063 18.6286C17.497 18.2057 18.3721 17.485 19.2591 16.8447C19.4845 16.6809 19.6892 16.3146 19.6922 16.0377C19.7189 14.1794 19.6685 12.3211 19.6922 10.4598C19.7011 9.69143 19.2235 9.78971 18.7429 9.77184C18.2149 9.75099 17.8085 9.78077 17.8293 10.5015C17.8738 11.9369 17.8441 13.3753 17.8797 14.8107C17.8916 15.3408 17.7462 15.6952 17.2657 15.9841C16.1562 16.6452 15.1031 17.4016 13.9848 18.0449C13.6882 18.2146 13.1601 18.2533 12.8665 18.0985C11.4248 17.345 10.0128 16.529 8.62447 15.6773C8.37529 15.5254 8.14985 15.1115 8.14391 14.8167C8.10535 12.5921 8.11425 10.3674 8.13204 8.14284C8.13204 7.91651 8.21807 7.58297 8.37826 7.48172C9.68348 6.67764 11.0124 5.91824 12.5194 5.03674C12.5194 7.34473 12.5194 9.39661 12.5194 11.4485C12.5194 12.3211 13.3974 12.8422 14.1331 12.3598C14.2992 12.2496 14.3556 11.8773 14.3586 11.6242C14.3793 9.3698 14.3942 7.11839 14.3645 4.86401C14.3556 4.22373 14.6226 3.89614 15.1091 3.49708C17.0106 1.93659 18.9536 1.62687 21.1754 2.81809C22.1276 3.33031 23.2193 3.59834 24.2694 3.89912C24.9368 4.08972 25.1118 4.45006 25.1118 5.11417C25.0881 11.9577 25.0941 18.8043 25.0911 25.6478C25.0911 26.717 25.0525 27.7891 25.097 28.8582L25.094 28.8701ZM33.9577 41.1188C34.9277 41.1277 35.6337 41.8574 35.6159 42.8431C35.5981 43.808 34.8477 44.5465 33.8984 44.5317C32.9758 44.5168 32.1897 43.7008 32.2164 42.7835C32.2431 41.8187 32.9847 41.1099 33.9577 41.1158V41.1188Z" fill="url(#paint0_linear_4359_4223)"/>
<defs>
<linearGradient id="paint0_linear_4359_4223" x1="11.6028" y1="46.515" x2="36.7806" y2="3.07613" gradientUnits="userSpaceOnUse">
<stop stop-color="#A5E1FE"/>
<stop offset="1" stop-color="#745AFE"/>
</linearGradient>
</defs>
</svg>
