<svg width="262" height="262" viewBox="0 0 262 262" fill="none" xmlns="http://www.w3.org/2000/svg">
<path d="M171.015 115.581L231.274 80.7903L171.015 46V61.9377C148.345 60.9757 124.991 61.8375 98.3941 80.7128C74.8077 97.4516 74.7533 97.4824 64.7178 103.167L63.849 103.659C59.952 105.867 53.0652 108.343 45.6154 110.327C42.0726 111.271 38.7605 112.009 36.1094 112.499C33.87 112.912 32.6469 113.044 32.27 113.085C32.1395 113.099 32.1104 113.103 32.1758 113.103V113.15C31.7677 113.133 31.3752 113.124 31 113.124V148.397C30.9346 148.397 30.9636 148.4 31.0942 148.415C31.4711 148.455 32.6942 148.588 34.9337 149.001C37.5847 149.49 40.8968 150.229 44.4396 151.173C51.8894 153.157 58.7762 155.633 62.6732 157.841L63.5421 158.333C73.5775 164.018 73.6319 164.048 97.2183 180.787C123.816 199.662 147.169 200.524 169.839 199.562V215.5L230.098 180.709L169.839 145.919V164.009C148.128 164.959 136.199 165.197 117.633 152.021L117.302 151.787C98.5116 138.452 94.0046 135.253 86.9345 131.094C94.7334 126.564 98.668 123.772 118.477 109.714L118.808 109.478C137.375 96.3026 149.304 96.5406 171.015 97.4914V115.581Z" fill="currentColor" stroke="currentColor" stroke-width="0.391925"/>
</svg>
