
<svg width="1200" height="400" viewBox="0 0 1200 400" xmlns="http://www.w3.org/2000/svg" xmlns:xlink="http://www.w3.org/1999/xlink">
    <g id="text">
        <g id="Group">
            <path id="Path" fill="currentColor" stroke="none" d="M 401.350006 196.190002 C 401.350006 207.370005 399.303335 216.973338 395.209991 225 C 391.116669 233.026662 385.516673 239.196665 378.410004 243.51001 C 371.303335 247.823334 363.233337 249.979996 354.200012 249.979996 C 345.133341 249.979996 337.043335 247.823334 329.929993 243.51001 C 322.823324 239.196665 317.226664 233.019994 313.140015 224.979996 C 309.046672 216.933334 307 207.33667 307 196.190002 C 307 185.003337 309.046672 175.396667 313.140015 167.369995 C 317.226664 159.343333 322.823324 153.173335 329.929993 148.860001 C 337.043335 144.546656 345.133341 142.389984 354.200012 142.389984 C 363.233337 142.389984 371.303335 144.546656 378.410004 148.860001 C 385.516673 153.173335 391.116669 159.343333 395.209991 167.369995 C 399.303335 175.396667 401.350006 185.003337 401.350006 196.190002 M 385.700012 196.190002 C 385.700012 187.66333 384.326681 180.476664 381.580017 174.630005 C 378.840007 168.783335 375.090007 164.353333 370.330017 161.339996 C 365.576681 158.319997 360.200012 156.809998 354.200012 156.809998 C 348.166667 156.809998 342.779999 158.319997 338.040009 161.339996 C 333.299998 164.353333 329.559998 168.783335 326.820007 174.630005 C 324.073344 180.476664 322.700012 187.66333 322.700012 196.190002 C 322.700012 204.710002 324.073344 211.893336 326.820007 217.740005 C 329.559998 223.586665 333.299998 228.019994 338.040009 231.039993 C 342.779999 234.053329 348.166667 235.559998 354.200012 235.559998 C 360.200012 235.559998 365.576681 234.053329 370.330017 231.039993 C 375.090007 228.019994 378.840007 223.586665 381.580017 217.740005 C 384.326681 211.893336 385.700012 204.710002 385.700012 196.190002 Z M 419.76001 278 L 419.76001 170 L 434.690002 170 L 434.690002 182.740005 L 435.970001 182.740005 C 436.856679 181.100001 438.133352 179.206665 439.800018 177.059998 C 441.473338 174.91333 443.793335 173.029999 446.76001 171.410004 C 449.720011 169.789998 453.640015 168.979996 458.52002 168.979996 C 464.860006 168.979996 470.516673 170.583328 475.490021 173.789993 C 480.470022 176.996668 484.383352 181.616669 487.230011 187.649994 C 490.07667 193.683329 491.5 200.943329 491.5 209.429993 C 491.5 217.916667 490.08667 225.186671 487.26001 231.240005 C 484.426676 237.29334 480.540009 241.946671 475.600006 245.199997 C 470.65333 248.453334 465.01 250.080002 458.670013 250.080002 C 453.896678 250.080002 450.003347 249.280004 446.990021 247.680008 C 443.970022 246.080002 441.606679 244.206665 439.899994 242.059998 C 438.200002 239.906667 436.890004 237.996668 435.970001 236.330002 L 435.050018 236.330002 L 435.050018 278 L 419.76001 278 M 434.73999 209.279999 C 434.73999 214.799998 435.539998 219.639999 437.140015 223.800003 C 438.746684 227.959997 441.066681 231.20666 444.100006 233.539993 C 447.133331 235.873327 450.84667 237.039993 455.240021 237.039993 C 459.813344 237.039993 463.633341 235.823329 466.700012 233.389999 C 469.766683 230.949997 472.093343 227.633331 473.679993 223.440002 C 475.266663 219.246663 476.059998 214.526662 476.059998 209.279999 C 476.059998 204.093333 475.283335 199.439997 473.730011 195.319992 C 472.176666 191.193334 469.859996 187.936671 466.779999 185.550003 C 463.693329 183.163335 459.84667 181.970001 455.240021 181.970001 C 450.813344 181.970001 447.073344 183.113332 444.02002 185.399994 C 440.966675 187.679993 438.656667 190.866664 437.089996 194.960007 C 435.523326 199.05334 434.73999 203.82667 434.73999 209.279999 Z M 542.47998 250.139999 C 534.746663 250.139999 528.090007 248.476669 522.51001 245.150009 C 516.936686 241.823339 512.643351 237.136668 509.630005 231.089996 C 506.610006 225.036662 505.100006 217.936661 505.100006 209.789993 C 505.100006 201.743332 506.610006 194.653336 509.630005 188.520004 C 512.643351 182.38 516.870015 177.589996 522.309998 174.149994 C 527.75002 170.703328 534.116699 168.979996 541.410034 168.979996 C 545.843343 168.979996 550.139994 169.713328 554.299988 171.179993 C 558.453349 172.646667 562.18335 174.946671 565.48999 178.080002 C 568.796672 181.219996 571.406677 185.286662 573.320007 190.279999 C 575.226664 195.273336 576.179993 201.333338 576.179993 208.460007 L 576.179993 213.880005 L 513.73999 213.880005 L 513.73999 202.429993 L 561.200012 202.429993 C 561.200012 198.40333 560.380005 194.830002 558.73999 191.710007 C 557.106649 188.590001 554.81665 186.126663 551.869995 184.319992 C 548.916667 182.513331 545.463338 181.610001 541.51001 181.610001 C 537.216675 181.610001 533.476664 182.659999 530.289978 184.759995 C 527.103333 186.853327 524.646667 189.579997 522.919983 192.940002 C 521.200012 196.299998 520.340027 199.939997 520.340027 203.860001 L 520.340027 212.809998 C 520.340027 218.056661 521.27002 222.519994 523.130005 226.199997 C 524.983358 229.886663 527.583354 232.693329 530.929993 234.619995 C 534.269999 236.539998 538.17334 237.5 542.640015 237.5 C 545.533325 237.5 548.173319 237.083333 550.559998 236.25 C 552.946676 235.416667 555.01001 234.163335 556.75 232.490005 C 558.48999 230.823339 559.819987 228.763336 560.73999 226.309998 L 575.210022 228.910004 C 574.050028 233.176666 571.980021 236.90333 569 240.089996 C 566.013346 243.276672 562.280009 245.746674 557.799988 247.5 C 553.313334 249.26 548.206665 250.139999 542.47998 250.139999 Z M 608.5 201.910004 L 608.5 248.550003 L 593.210022 248.550003 L 593.210022 170 L 607.890015 170 L 607.890015 182.789993 L 608.859985 182.789993 C 610.666667 178.63 613.503337 175.290003 617.369995 172.770004 C 621.243327 170.243332 626.126668 168.979996 632.02002 168.979996 C 637.373332 168.979996 642.063334 170.096664 646.090027 172.330002 C 650.110006 174.563329 653.226664 177.879995 655.440002 182.279999 C 657.660014 186.67333 658.77002 192.109996 658.77002 198.589996 L 658.77002 248.550003 L 643.480042 248.550003 L 643.480042 200.429993 C 643.480042 194.736664 641.996704 190.279999 639.030029 187.059998 C 636.063354 183.839996 631.990011 182.229996 626.809998 182.229996 C 623.263326 182.229996 620.116659 182.996663 617.369995 184.529999 C 614.630005 186.063334 612.466675 188.303335 610.880005 191.25 C 609.293335 194.203328 608.5 197.756663 608.5 201.910004 Z M 680.450012 248.550003 L 680.450012 143.820007 L 717.780029 143.820007 C 725.893351 143.820007 732.633341 145.220006 738 148.020004 C 743.373332 150.813329 747.389994 154.673325 750.049988 159.599991 C 752.703349 164.526657 754.030029 170.209991 754.030029 176.649994 C 754.030029 183.063334 752.693359 188.696671 750.02002 193.550003 C 747.34668 198.409999 743.323344 202.186666 737.950012 204.880005 C 732.583354 207.573334 725.843363 208.919998 717.730042 208.919998 L 689.450012 208.919998 L 689.450012 195.319992 L 716.299988 195.319992 C 721.41335 195.319992 725.580017 194.58666 728.799988 193.119995 C 732.019999 191.65333 734.380005 189.523331 735.880005 186.729996 C 737.380005 183.929998 738.130005 180.569997 738.130005 176.649994 C 738.130005 172.696665 737.373332 169.269999 735.859985 166.369995 C 734.340007 163.476664 731.970011 161.253332 728.75 159.699997 C 725.523356 158.146662 721.303365 157.369995 716.090027 157.369995 L 696.25 157.369995 L 696.25 248.550003 L 680.450012 248.550003 M 732.150024 201.300003 L 758.02002 248.550003 L 740.02002 248.550003 L 714.660034 201.300003 L 732.150024 201.300003 Z M 805.170044 250.139999 C 797.810018 250.139999 791.383341 248.450002 785.890015 245.070007 C 780.403361 241.696676 776.143351 236.976674 773.109985 230.910004 C 770.07666 224.843333 768.559998 217.753332 768.559998 209.639999 C 768.559998 201.486669 770.07666 194.360001 773.109985 188.259995 C 776.143351 182.159999 780.403361 177.419998 785.890015 174.039993 C 791.383341 170.666662 797.810018 168.979996 805.170044 168.979996 C 812.536702 168.979996 818.963359 170.666662 824.450012 174.039993 C 829.936666 177.419998 834.196655 182.159999 837.22998 188.259995 C 840.263346 194.360001 841.780029 201.486669 841.780029 209.639999 C 841.780029 217.753332 840.263346 224.843333 837.22998 230.910004 C 834.196655 236.976674 829.936666 241.696676 824.450012 245.070007 C 818.963359 248.450002 812.536702 250.139999 805.170044 250.139999 M 805.220032 237.300003 C 809.993347 237.300003 813.950012 236.040003 817.090027 233.520004 C 820.223328 230.993332 822.549988 227.633331 824.070007 223.440002 C 825.583354 219.246663 826.340027 214.626663 826.340027 209.580002 C 826.340027 204.573329 825.583354 199.963328 824.070007 195.75 C 822.549988 191.543335 820.223328 188.160004 817.090027 185.600006 C 813.950012 183.046672 809.993347 181.770004 805.220032 181.770004 C 800.41335 181.770004 796.43335 183.046672 793.280029 185.600006 C 790.126668 188.160004 787.793335 191.543335 786.280029 195.75 C 784.76001 199.963328 784 204.573329 784 209.580002 C 784 214.626663 784.76001 219.246663 786.280029 223.440002 C 787.793335 227.633331 790.126668 230.993332 793.280029 233.520004 C 796.43335 236.040003 800.41335 237.300003 805.220032 237.300003 Z M 908.570007 215.979996 L 908.570007 170 L 923.909973 170 L 923.909973 248.550003 L 908.880005 248.550003 L 908.880005 234.949997 L 908.059998 234.949997 C 906.253316 239.143336 903.363322 242.630005 899.390015 245.410004 C 895.416667 248.183339 890.483337 249.570007 884.590027 249.570007 C 879.543355 249.570007 875.083354 248.453339 871.210022 246.220001 C 867.343323 243.986674 864.309977 240.67334 862.109985 236.279999 C 859.909993 231.879995 858.809998 226.439997 858.809998 219.960007 L 858.809998 170 L 874.099976 170 L 874.099976 218.119995 C 874.099976 223.473328 875.583313 227.736664 878.549988 230.910004 C 881.516663 234.07667 885.369995 235.660004 890.109985 235.660004 C 892.970011 235.660004 895.823344 234.946671 898.669983 233.520004 C 901.516663 232.086665 903.886678 229.919998 905.780029 227.020004 C 907.67334 224.126663 908.603333 220.44666 908.570007 215.979996 Z M 981.080017 170 L 981.080017 182.279999 L 938.179993 182.279999 L 938.179993 170 L 981.080017 170 M 949.679993 151.190002 L 964.969971 151.190002 L 964.969971 225.490005 C 964.969971 228.45667 965.41331 230.680003 966.299988 232.160004 C 967.186666 233.646667 968.33667 234.65333 969.75 235.179993 C 971.170003 235.706665 972.713338 235.970001 974.380005 235.970001 C 975.606649 235.970001 976.679972 235.883336 977.599976 235.710007 C 978.519979 235.54334 979.236654 235.410004 979.75 235.309998 L 982.51001 247.940002 C 981.623332 248.279999 980.363322 248.626663 978.72998 248.979996 C 977.090007 249.340001 975.043355 249.536672 972.590027 249.570007 C 968.570007 249.643341 964.820007 248.930008 961.340027 247.430008 C 957.866679 245.930008 955.053345 243.610006 952.900024 240.470001 C 950.753337 237.33667 949.679993 233.400004 949.679993 228.660004 L 949.679993 151.190002 Z M 1031.810059 250.139999 C 1024.070028 250.139999 1017.41335 248.476669 1011.840027 245.150009 C 1006.266663 241.823339 1001.969991 237.136668 998.950012 231.089996 C 995.936666 225.036662 994.429993 217.936661 994.429993 209.789993 C 994.429993 201.743332 995.936666 194.653336 998.950012 188.520004 C 1001.969991 182.38 1006.196655 177.589996 1011.630005 174.149994 C 1017.069987 170.703328 1023.436646 168.979996 1030.72998 168.979996 C 1035.16333 168.979996 1039.460002 169.713328 1043.619995 171.179993 C 1047.779989 172.646667 1051.513346 174.946671 1054.820068 178.080002 C 1058.126709 181.219996 1060.733358 185.286662 1062.640015 190.279999 C 1064.553345 195.273336 1065.51001 201.333338 1065.51001 208.460007 L 1065.51001 213.880005 L 1003.070007 213.880005 L 1003.070007 202.429993 L 1050.52002 202.429993 C 1050.52002 198.40333 1049.703369 194.830002 1048.070068 191.710007 C 1046.430013 188.590001 1044.136678 186.126663 1041.190063 184.319992 C 1038.243368 182.513331 1034.793376 181.610001 1030.840088 181.610001 C 1026.540039 181.610001 1022.796672 182.659999 1019.609985 184.759995 C 1016.42334 186.853327 1013.970011 189.579997 1012.25 192.940002 C 1010.523315 196.299998 1009.659973 199.939997 1009.659973 203.860001 L 1009.659973 212.809998 C 1009.659973 218.056661 1010.589986 222.519994 1012.450012 226.199997 C 1014.309998 229.886663 1016.909993 232.693329 1020.25 234.619995 C 1023.590007 236.539998 1027.493368 237.5 1031.960083 237.5 C 1034.860067 237.5 1037.503377 237.083333 1039.890015 236.25 C 1042.276652 235.416667 1044.33667 234.163335 1046.070068 232.490005 C 1047.810059 230.823339 1049.140055 228.763336 1050.060059 226.309998 L 1064.530029 228.910004 C 1063.376709 233.176666 1061.306722 236.90333 1058.320068 240.089996 C 1055.340007 243.276672 1051.606649 245.746674 1047.119995 247.5 C 1042.640015 249.26 1037.536702 250.139999 1031.810059 250.139999 Z M 1082.530029 248.550003 L 1082.530029 170 L 1097.310059 170 L 1097.310059 182.479996 L 1098.130005 182.479996 C 1099.563354 178.253332 1102.093343 174.919998 1105.719971 172.479996 C 1109.353353 170.046666 1113.470052 168.830002 1118.070068 168.830002 C 1119.030029 168.830002 1120.16333 168.863332 1121.469971 168.929993 C 1122.783366 168.996663 1123.816732 169.083333 1124.570068 169.190002 L 1124.570068 183.809998 C 1123.956706 183.643331 1122.866699 183.446665 1121.300049 183.220001 C 1119.726725 183 1118.156738 182.889999 1116.590088 182.889999 C 1112.976725 182.889999 1109.763387 183.649999 1106.950073 185.169998 C 1104.136678 186.683334 1101.91333 188.780004 1100.280029 191.460007 C 1098.640055 194.133336 1097.820068 197.173335 1097.820068 200.580002 L 1097.820068 248.550003 L 1082.530029 248.550003 Z"/>
        </g>
    </g>
    <g id="OpenRouter">
        <path id="path1" fill="currentColor" stroke="currentColor" stroke-width="35.273258" d="M 76.175774 200.471542 C 82.054649 200.471542 104.786308 195.398071 116.54406 188.735336 C 128.301804 182.072617 128.301804 182.072617 152.601166 164.827911 C 183.366104 142.994934 205.119125 150.30513 240.784302 150.30513"/>
        <path id="path2" fill="currentColor" stroke="currentColor" stroke-width="0.391925" d="M 275.273712 150.522644 L 215.015228 185.313049 L 215.015228 115.732391 L 275.273712 150.522644 Z"/>
        <path id="path3" fill="currentColor" stroke="currentColor" stroke-width="35.273258" d="M 75 200.493088 C 80.878876 200.493088 103.610527 205.566559 115.368286 212.229294 C 127.126038 218.892014 127.126038 218.892014 151.425385 236.136719 C 182.190338 257.969696 203.943344 250.6595 239.608536 250.6595"/>
        <path id="path4" fill="currentColor" stroke="currentColor" stroke-width="0.391925" d="M 274.097931 250.441986 L 213.839462 215.651978 L 213.839462 285.232391 L 274.097931 250.441986 Z"/>
    </g>
</svg>
