<svg width="525" height="525" viewBox="0 0 525 525" fill="none" xmlns="http://www.w3.org/2000/svg">
<path d="M188.699 260.018C192.508 255.707 199.09 255.301 203.4 259.11C206.856 262.163 215.577 269.057 222.792 272.62C229.292 275.83 239.447 277.166 243.783 277.338C249.531 277.565 254.006 282.408 253.779 288.156C253.552 293.904 248.709 298.379 242.961 298.152C239.014 297.996 230.747 297.151 222.542 294.73V298.16C222.542 303.912 217.879 308.575 212.126 308.575C206.374 308.575 201.711 303.912 201.711 298.16V284.139C196.435 280.469 191.928 276.771 189.606 274.719C185.296 270.91 184.89 264.328 188.699 260.018Z" fill="black"/>
<path d="M280.872 280.584C277.139 280.584 272.665 283.202 272.665 288.526C272.665 291.924 275.403 294.827 278.797 296.833C279.538 297.27 280.321 297.672 281.129 298.033C281.128 298.075 281.128 298.118 281.128 298.16C281.128 298.436 281.133 298.708 281.142 298.977C281.133 299.138 281.128 299.299 281.128 299.462C281.128 301.47 280.263 302.816 277.607 304.092C274.976 305.355 271.678 305.865 269.539 305.956C269.497 305.884 269.453 305.801 269.41 305.709C269.288 305.449 269.232 305.247 269.22 305.196C268.274 300.987 264.095 298.342 259.886 299.288C255.677 300.234 253.031 304.413 253.978 308.622C254.479 310.853 255.653 313.775 257.786 316.308C260.033 318.977 263.732 321.595 268.852 321.595C272.371 321.595 278.653 320.92 284.37 318.175C286.24 317.277 288.148 316.094 289.889 314.585C291.244 315.529 292.647 316.306 294.014 316.933C299.897 319.63 306.371 320.293 309.982 320.293C315.065 320.293 318.819 317.813 321.174 315.142C323.402 312.617 324.648 309.677 325.185 307.398C326.174 303.198 323.571 298.992 319.372 298.004C315.172 297.015 310.967 299.617 309.978 303.817L309.977 303.818L309.974 303.832L309.97 303.845L309.967 303.856L309.96 303.879L309.952 303.902C309.946 303.921 309.939 303.942 309.931 303.965C309.898 304.056 309.853 304.164 309.796 304.279C309.72 304.434 309.641 304.564 309.57 304.665C307.276 304.61 303.514 304.101 300.524 302.731C298.014 301.581 297.056 300.409 296.816 298.99C298.289 298.495 299.705 297.845 300.977 297.053C304.13 295.091 306.515 292.181 306.515 288.526C306.515 285.611 305.127 283.654 303.41 282.423C301.719 281.21 299.71 280.695 298.361 280.586L298.335 280.584H280.872Z" fill="black"/>
<path d="M369.765 299.659C365.536 300.356 361.897 300.667 359.654 300.756C353.906 300.983 349.062 296.508 348.835 290.76C348.608 285.012 353.084 280.169 358.831 279.941C363.168 279.77 373.323 278.433 379.823 275.224C387.038 271.661 395.759 264.767 399.215 261.713C403.525 257.904 410.107 258.311 413.916 262.621C417.725 266.932 417.319 273.514 413.008 277.323C409.24 280.653 399.715 288.319 390.488 293.166V298.16C390.488 303.912 385.825 308.575 380.073 308.575C374.83 308.575 370.492 304.701 369.765 299.659Z" fill="black"/>
<path fill-rule="evenodd" clip-rule="evenodd" d="M154.472 23.1884C153.924 23.4358 153.378 23.685 152.833 23.9361V23.9361C62.6228 65.4739 0 156.674 0 262.5C0 366.101 60.0164 455.683 147.178 498.377C181.987 515.428 221.126 525 262.5 525C407.475 525 525 407.475 525 262.5C525 235.317 520.868 209.1 513.199 184.441C512.766 183.05 512.322 181.664 511.867 180.283C506.798 164.9 500.346 150.146 492.657 136.168C472.484 99.4941 443.8 68.1616 409.266 44.8309C406.366 42.8714 403.424 40.9683 400.443 39.1233C360.359 14.3178 313.102 0 262.5 0C245.388 0 228.659 1.6372 212.461 4.76367C192.205 8.6732 172.779 14.9114 154.472 23.1884ZM147.178 462.122V401.912C132.808 400.761 104.068 389.944 104.068 355.878C104.068 321.813 131.658 306.008 145.454 302.364V274.168C133.191 271.099 108.666 258.056 108.666 230.436C108.666 195.911 142.58 175.771 173.619 175.771C164.805 157.933 147.178 110.748 147.178 64.714C147.178 64.0956 147.181 63.4821 147.187 62.8735C78.3249 102.737 32 177.209 32 262.5C32 347.788 78.3211 422.257 147.178 462.122ZM222.54 35.4513C227.473 55.385 233.77 82.5767 237.423 98.664C243.554 96.9377 258.691 93.4852 270.187 93.4852C266.738 88.3064 259.84 75.3018 259.84 64.714C259.84 53.053 266.087 40.0519 276.223 32.4017C271.683 32.1352 267.107 32 262.5 32C248.871 32 235.519 33.1828 222.54 35.4513ZM364.631 55.8041C376.437 66.3292 388.944 80.2895 401.818 98.664C401.563 93.494 401.248 86.1957 400.976 78.2154C389.629 69.6756 377.468 62.1594 364.631 55.8041ZM288.988 261.872C237.267 259.873 214.304 249.526 201.627 243.815C196.1 241.324 192.528 239.715 189.381 240.063C187.654 240.255 185.835 241.303 184.2 242.933C176.139 250.967 166.636 282.434 164.048 298.601C163.772 300.323 164.048 302.534 165.775 304.34C179.322 318.503 233.715 340.463 284.957 343.365C339.079 346.43 429.473 329.592 440.988 310.079C441.225 309.678 441.454 309.306 441.672 308.952L441.678 308.943L441.678 308.942C442.956 306.869 443.867 305.39 443.867 302.044C443.867 280.236 420.069 245.037 408.17 237.768C406.443 236.713 404.419 236.696 402.412 237.768C384.143 247.525 342.526 263.94 288.988 261.872Z" fill="black"/>
</svg>
